<svg width="20" height="14" viewBox="0 0 20 14" fill="none" xmlns="http://www.w3.org/2000/svg">
<g clip-path="url(#clip0_0_75)">
<path d="M4.85604 13.7893V6.76086L2.5965 4.76675L0.570312 3.66016V12.5489C0.570312 13.2352 1.14671 13.7893 1.85606 13.7893H4.85604Z" fill="#4285F4"/>
<path d="M15.1406 13.7892H18.1406C18.8521 13.7892 19.4264 13.2331 19.4264 12.5489V3.66016L17.1314 4.92763L15.1406 6.76079V13.7892Z" fill="#34A853"/>
<path d="M4.85629 6.7613L4.54883 4.0151L4.85629 1.38672L9.99913 5.10763L15.142 1.38672L15.486 3.8732L15.142 6.7613L9.99913 10.4822L4.85629 6.7613Z" fill="#EA4335"/>
<path d="M15.1406 1.38636V6.76095L19.4264 3.66024V2.00649C19.4264 0.472694 17.6114 -0.401681 16.3407 0.518171L15.1406 1.38636Z" fill="#FBBC04"/>
<path d="M0.570312 3.66027L2.5414 5.08641L4.85604 6.76098V1.3864L3.65596 0.518204C2.3831 -0.401719 0.570312 0.472726 0.570312 2.00645V3.6602V3.66027Z" fill="#C5221F"/>
</g>
<defs>
<clipPath id="clip0_0_75">
<rect width="18.8571" height="13.7143" fill="white" transform="translate(0.570312 0.142578)"/>
</clipPath>
</defs>
</svg>
