<svg width="16" height="18" viewBox="0 0 16 18" fill="none" xmlns="http://www.w3.org/2000/svg">
<path d="M1 4.11133H2.55556H15" stroke="#AAAAAA" stroke-width="1.5" stroke-linecap="round" stroke-linejoin="round"/>
<path d="M4.88802 4.11111V2.55556C4.88802 2.143 5.05191 1.74733 5.34363 1.45561C5.63536 1.16389 6.03102 1 6.44358 1H9.55469C9.96725 1 10.3629 1.16389 10.6546 1.45561C10.9464 1.74733 11.1102 2.143 11.1102 2.55556V4.11111M13.4436 4.11111V15C13.4436 15.4126 13.2797 15.8082 12.988 16.0999C12.6962 16.3917 12.3006 16.5556 11.888 16.5556H4.11024C3.69768 16.5556 3.30202 16.3917 3.0103 16.0999C2.71858 15.8082 2.55469 15.4126 2.55469 15V4.11111H13.4436Z" stroke="#AAAAAA" stroke-width="1.5" stroke-linecap="round" stroke-linejoin="round"/>
<path d="M6.44531 8V12.6667" stroke="#AAAAAA" stroke-width="1.5" stroke-linecap="round" stroke-linejoin="round"/>
<path d="M9.55469 8V12.6667" stroke="#AAAAAA" stroke-width="1.5" stroke-linecap="round" stroke-linejoin="round"/>
</svg>
